<svg xmlns="http://www.w3.org/2000/svg" viewBox="0 0 27.606 18.06">
  <defs>
    <style>
      .cls-1 {
        fill: rgba(0,46,115,0.7);
      }

      .cls-2 {
        fill: rgba(255,255,255,0.6);
      }
    </style>
  </defs>
  <g id="刷新_1" transform="translate(0 0)">
    <path id="路径_117" data-name="路径 117" class="cls-1" d="M756,137.091,762.213,122h21.393l-6.213,15.091Z" transform="translate(-756 -122)"/>
    <rect id="矩形_168" data-name="矩形 168" class="cls-1" width="20.547" height="1.303" transform="translate(0.26 16.757)"/>
    <path id="刷新" class="cls-2" d="M7,6.347A3.923,3.923,0,0,1,.056,4.425H1.184a2.809,2.809,0,0,0,5.01,1.12l-1.12-1.12H7.893V7.244Zm-3.049-5.3A2.8,2.8,0,0,0,1.7,2.177L2.819,3.3H0V.479l.9.9A3.923,3.923,0,0,1,7.836,3.3H6.709A2.819,2.819,0,0,0,3.946,1.042Z" transform="translate(10.078 3.902)"/>
  </g>
</svg>
